<svg xmlns="http://www.w3.org/2000/svg"  viewBox="0 0 40 40" width="40px" height="40px" baseProfile="basic"><linearGradient id="o7nevUVApTXgHrsCQ945Aa" x1="26.425" x2="36.773" y1="14" y2="14" gradientUnits="userSpaceOnUse"><stop offset="0" stop-color="#b2b2b2"/><stop offset="1"/></linearGradient><polygon fill="url(#o7nevUVApTXgHrsCQ945Aa)" points="31,16 20,16 20,12 35,12"/><path fill="#b2b2b2" d="M23.445,18C23.789,18.59,24,19.268,24,20c0,2.209-1.791,4-4,4s-4-1.791-4-4c0-2.209,1.791-4,4-4	h6.921c-1.384-2.389-3.962-4-6.921-4c-4.418,0-8,3.582-8,8s3.582,8,8,8s8-3.582,8-8c0-0.692-0.097-1.36-0.262-2H23.445z"/><linearGradient id="o7nevUVApTXgHrsCQ945Ab" x1="969" x2="969" y1="966.556" y2="1000.657" gradientTransform="matrix(0 -1 -1 0 1003 1002)" gradientUnits="userSpaceOnUse"><stop offset="0"/><stop offset=".266" stop-color="#b2b2b2"/><stop offset=".678" stop-color="#b2b2b2"/><stop offset="1"/></linearGradient><polygon fill="url(#o7nevUVApTXgHrsCQ945Ab)" points="31,35 9,35 5.926,31 34.656,31"/><linearGradient id="o7nevUVApTXgHrsCQ945Ac" x1="995" x2="995" y1="965.095" y2="1001.421" gradientTransform="matrix(0 -1 -1 0 1003 1002)" gradientUnits="userSpaceOnUse"><stop offset="0"/><stop offset=".3" stop-color="#b2b2b2"/><stop offset=".669" stop-color="#b2b2b2"/><stop offset="1"/></linearGradient><polygon fill="url(#o7nevUVApTXgHrsCQ945Ac)" points="31,5 9,5 5.926,9 33.926,9"/><polygon fill="#b2b2b2" points="9,5 9,35 5,31 5,8.982"/><polygon fill="#b2b2b2" points="35,8.982 31,5 31,16 35,12"/><polygon fill="#b2b2b2" points="35,15 31,18.982 31,34.982 35,30.982"/></svg>